<?xml version="1.0" standalone="no"?>
<!DOCTYPE svg PUBLIC "-//W3C//DTD SVG 20010904//EN"
 "http://www.w3.org/TR/2001/REC-SVG-20010904/DTD/svg10.dtd">
<svg version="1.0" xmlns="http://www.w3.org/2000/svg"
 width="1469.000000pt" height="1401.000000pt" viewBox="0 0 1469.000000 1401.000000"
 preserveAspectRatio="xMidYMid meet">

<g transform="translate(0.000000,1401.000000) scale(0.100000,-0.100000)"
fill="#000000" stroke="none">
<path d="M2085 13979 c-417 -44 -828 -209 -1135 -456 -97 -78 -268 -256 -344
-356 -303 -405 -488 -934 -561 -1607 -22 -203 -31 -691 -16 -920 65 -1008 384
-1892 928 -2571 101 -125 332 -367 372 -388 18 -10 18 -4 14 152 l-4 162 28
-31 c15 -17 67 -75 115 -130 106 -122 290 -302 416 -407 51 -42 95 -77 98 -77
2 0 -7 17 -20 38 -40 64 -151 291 -207 423 -268 638 -419 1396 -419 2109 0
340 28 551 101 774 228 697 920 1322 1759 1591 63 20 120 38 127 40 7 2 16
-16 23 -47 15 -73 57 -144 115 -194 48 -43 135 -84 175 -84 11 0 20 -2 20 -5
0 -3 -21 -43 -47 -88 -321 -566 -514 -1199 -585 -1922 -20 -206 -17 -704 5
-845 66 -417 215 -838 443 -1248 117 -212 338 -551 350 -539 2 2 -6 37 -17 78
-47 169 -95 445 -120 684 -17 155 -16 657 0 850 109 1302 610 2073 1495 2304
226 59 526 72 726 32 342 -68 900 -312 1352 -592 l77 -47 29 61 c153 326 675
681 1267 864 219 67 284 76 530 70 319 -9 513 -43 729 -128 321 -127 683 -388
903 -652 302 -363 462 -786 523 -1387 17 -170 24 -727 11 -875 -32 -362 -126
-811 -269 -1283 l-50 -164 35 34 c170 162 483 643 678 1043 214 438 258 649
275 1326 14 549 -4 851 -70 1179 -107 533 -346 1042 -689 1470 -210 262 -600
658 -783 795 -589 441 -1362 692 -1958 636 -408 -39 -830 -206 -1122 -444
l-58 -47 -44 34 c-201 153 -581 256 -1051 287 -345 22 -748 -24 -1036 -117
-123 -40 -335 -144 -453 -222 -43 -29 -80 -51 -81 -50 -1 2 -10 18 -20 37 -46
91 -183 191 -260 191 -26 0 -37 10 -75 62 -85 117 -269 252 -469 345 -292 136
-660 219 -1116 253 -162 12 -523 11 -640 -1z"/>
<path d="M12095 13978 c-288 -32 -638 -145 -902 -292 -105 -58 -236 -140 -288
-179 -110 -84 -215 -171 -215 -179 0 -4 15 -8 33 -8 46 -1 157 -42 244 -92
165 -94 388 -300 529 -487 82 -110 162 -267 177 -349 12 -62 12 -63 52 -72
142 -35 398 -129 541 -200 496 -244 825 -593 971 -1028 30 -90 42 -112 81
-151 198 -198 338 -525 358 -839 8 -118 15 -120 66 -18 69 137 108 390 108
711 l1 200 49 -54 c150 -164 252 -530 276 -988 l7 -124 23 22 c59 55 117 213
137 374 l13 98 19 -29 c11 -16 38 -64 61 -107 l41 -79 31 119 c164 621 218
1403 136 1958 -47 316 -149 617 -289 850 -335 558 -906 874 -1705 945 -137 12
-443 11 -555 -2z"/>
<path d="M9080 11318 c-431 -32 -1041 -367 -1618 -888 l-113 -102 -22 20 c-46
42 -204 137 -369 222 -405 208 -854 370 -1137 411 -102 14 -310 7 -436 -16
-498 -90 -902 -436 -1128 -965 -161 -379 -237 -813 -237 -1354 0 -543 66 -951
201 -1244 48 -104 106 -191 204 -307 43 -51 81 -107 87 -129 17 -55 -1 -180
-61 -421 -97 -392 -115 -541 -87 -702 20 -117 54 -202 111 -278 112 -150 303
-234 530 -235 140 0 210 23 363 120 75 47 157 53 229 17 109 -56 245 -218 279
-333 15 -52 15 -56 -10 -127 -41 -120 -83 -409 -62 -426 6 -5 62 -34 123 -65
l113 -56 14 23 c8 12 19 49 25 81 8 41 19 69 38 88 33 34 45 36 33 4 -10 -28
-30 -260 -30 -357 l0 -67 73 -35 c69 -35 177 -67 225 -67 33 0 65 77 92 225
31 167 56 266 85 332 25 55 25 56 61 50 20 -4 39 -8 41 -11 3 -3 -4 -44 -15
-93 -24 -104 -80 -439 -84 -502 -3 -39 0 -46 33 -72 44 -36 149 -73 266 -94
141 -24 147 -23 171 33 41 96 53 186 63 492 6 162 13 306 15 319 5 23 8 23 70
18 36 -2 67 -7 69 -9 13 -13 27 -173 35 -398 9 -270 19 -332 82 -515 l24 -70
64 -3 c89 -4 213 23 285 62 54 30 60 36 57 62 -36 392 -53 609 -59 740 l-6
161 33 6 c18 4 47 7 64 7 l31 0 0 -172 c0 -184 10 -271 56 -493 45 -220 35
-200 110 -198 35 1 105 13 154 28 80 23 246 90 285 115 12 7 5 36 -42 182 -87
263 -92 288 -92 418 0 96 4 124 23 173 12 31 26 55 30 52 5 -2 11 -24 15 -47
8 -49 149 -475 172 -520 15 -29 18 -30 62 -23 67 9 108 23 184 62 108 56 105
45 68 228 -17 86 -30 158 -28 159 2 1 28 10 59 19 l57 17 7 93 c14 188 61 364
128 476 l32 54 200 -6 c218 -6 399 -25 600 -62 112 -21 302 -69 357 -90 13 -5
50 44 183 243 l167 249 -42 97 c-65 153 -112 305 -117 376 -5 58 -1 74 32 155
121 290 266 794 350 1210 77 388 106 660 106 1010 0 628 -104 1127 -331 1591
-349 714 -940 1102 -1600 1052z m75 -2110 c341 -486 491 -677 721 -919 56 -59
111 -120 123 -137 l21 -30 -256 -296 c-142 -163 -260 -296 -264 -296 -4 0 -70
64 -147 143 -121 124 -142 150 -158 197 -46 140 -106 210 -180 210 -67 0 -82
-40 -40 -102 14 -21 30 -59 35 -86 25 -133 35 -148 315 -450 l53 -58 -59 -74
c-109 -137 -246 -267 -320 -305 l-28 -15 -168 193 c-423 483 -552 660 -720
983 l-72 140 51 65 c158 196 467 514 673 691 132 112 317 257 330 258 6 0 47
-51 90 -112z m-2403 -261 c164 -80 261 -254 262 -467 1 -234 -131 -468 -483
-854 -172 -187 -277 -339 -385 -553 -20 -40 -38 -73 -39 -73 -2 0 -23 19 -48
43 -53 51 -107 77 -304 152 -255 96 -423 185 -601 317 -211 158 -320 271 -386
402 -64 127 -103 373 -79 501 27 146 124 272 267 347 90 47 140 60 239 59 152
0 288 -53 383 -150 74 -75 108 -139 133 -252 23 -107 33 -129 92 -197 30 -36
52 -76 72 -134 37 -111 68 -164 102 -175 16 -6 34 -8 40 -6 21 7 35 82 28 142
-13 114 -32 160 -102 240 -108 123 -142 231 -108 347 22 76 46 117 109 182
131 136 250 172 552 169 l180 -2 76 -38z m843 -2117 c54 -80 136 -196 183
-259 147 -199 185 -272 218 -423 31 -137 16 -478 -21 -478 -16 0 -122 120
-275 310 -66 82 -123 151 -128 154 -5 3 -31 -25 -58 -61 -73 -98 -247 -247
-433 -373 l-64 -43 6 144 c11 250 78 490 216 774 109 224 234 428 251 408 4
-4 51 -73 105 -153z"/>
<path d="M9349 5370 c-61 -11 -88 -26 -93 -53 -3 -12 -7 -103 -10 -202 -6
-246 -36 -400 -99 -519 -21 -40 -82 -111 -192 -225 -205 -212 -244 -267 -265
-379 -15 -82 28 -319 71 -389 40 -65 161 -82 233 -33 43 30 69 70 112 170 43
103 85 162 259 365 232 271 265 322 284 440 28 177 41 562 22 662 -9 48 -56
107 -111 141 -43 26 -137 36 -211 22z"/>
<path d="M5507 5266 c-55 -20 -107 -64 -123 -103 -30 -72 -38 -242 -26 -558
l12 -300 40 -80 c78 -157 350 -479 458 -542 56 -33 85 -22 113 42 39 87 44
300 9 366 -7 13 -44 56 -81 96 -104 110 -144 204 -158 369 -4 54 -4 149 0 209
4 61 11 180 14 265 7 173 3 190 -53 223 -44 26 -153 33 -205 13z"/>
<path d="M8430 3950 c-12 -24 -38 -84 -57 -134 -44 -115 -43 -114 -58 -80 -7
16 -24 44 -39 62 l-28 32 -147 0 c-193 0 -190 3 -215 -218 -16 -136 -33 -203
-53 -209 -9 -3 -12 29 -10 134 2 156 -4 176 -60 199 -40 17 -263 38 -274 27
-5 -5 -23 -82 -42 -173 l-34 -165 -12 45 c-23 89 -73 225 -93 252 -18 26 -24
28 -96 28 -42 0 -107 -3 -143 -6 l-66 -7 -12 -141 c-15 -187 -27 -236 -57
-236 -30 0 -37 15 -69 141 -71 281 -211 384 -296 217 -25 -49 -49 -156 -49
-220 0 -48 0 -48 -34 -48 l-34 0 -5 178 c-5 195 -15 244 -54 269 -37 24 -337
33 -346 11 -16 -42 -29 -266 -24 -403 7 -169 26 -263 80 -391 70 -167 225
-389 297 -426 55 -28 187 -34 300 -13 163 29 219 34 420 41 171 6 227 3 460
-21 296 -31 559 -38 627 -17 60 18 123 70 156 127 16 28 62 109 103 180 113
196 183 343 196 410 12 64 18 548 6 560 -9 10 -72 22 -150 30 l-66 7 -22 -42z"/>
<path d="M5491 2650 c-71 -17 -142 -98 -168 -191 l-16 -59 -71 68 c-83 80
-120 96 -214 90 -83 -5 -147 -35 -206 -98 -94 -100 -131 -202 -124 -344 10
-215 129 -288 411 -250 110 15 119 15 144 -1 24 -16 25 -20 17 -64 -17 -95
-11 -231 15 -310 49 -150 115 -183 291 -146 115 24 234 96 328 199 99 108 138
245 94 326 -23 42 -89 85 -157 101 -27 6 -57 14 -65 16 -9 2 3 12 29 24 73 32
136 85 164 137 22 41 27 62 27 123 0 135 -74 237 -226 316 -119 61 -203 81
-273 63z"/>
<path d="M9090 2649 c-73 -14 -223 -94 -280 -149 -70 -68 -100 -135 -100 -226
0 -42 6 -87 15 -108 21 -50 85 -109 157 -145 33 -17 54 -32 47 -34 -8 -3 -36
-10 -64 -16 -68 -16 -134 -59 -157 -101 -44 -81 -5 -218 94 -326 94 -103 213
-175 328 -199 176 -37 242 -4 291 146 26 79 32 215 15 310 -8 44 -7 48 17 64
25 16 34 16 144 1 275 -37 400 36 411 240 8 148 -33 260 -132 360 -70 70 -126
94 -218 94 -81 0 -122 -20 -199 -96 l-66 -66 -12 48 c-26 103 -86 176 -165
199 -55 16 -61 17 -126 4z"/>
<path d="M7153 2480 c-83 -17 -133 -58 -133 -109 0 -16 18 -41 54 -76 42 -41
58 -65 74 -116 31 -92 52 -188 52 -234 0 -49 22 -83 66 -101 61 -25 93 -19
139 29 52 54 70 113 60 195 -9 80 6 107 90 161 77 50 125 110 125 156 0 70
-80 96 -315 101 -93 2 -189 -1 -212 -6z"/>
<path d="M6616 1975 c-203 -52 -353 -213 -407 -441 -39 -165 -24 -430 31 -560
68 -159 240 -310 516 -453 87 -46 185 -101 218 -124 90 -61 232 -203 306 -306
36 -49 67 -90 70 -90 3 -1 22 25 42 57 58 90 146 191 195 225 463 321 772 578
836 694 55 102 95 324 83 463 -19 215 -67 303 -221 410 -142 97 -263 140 -400
140 -133 0 -231 -54 -388 -214 -108 -110 -154 -136 -213 -122 -16 4 -83 61
-163 140 -172 167 -212 189 -351 193 -59 1 -117 -3 -154 -12z"/>
<path d="M5063 1760 c-132 -14 -224 -39 -255 -70 -15 -16 -28 -37 -28 -48 0
-23 36 -77 110 -165 82 -98 125 -108 174 -44 58 76 124 340 84 336 -7 -1 -46
-5 -85 -9z"/>
<path d="M9540 1737 c1 -88 60 -265 105 -313 40 -42 64 -43 110 -3 50 45 154
176 161 205 8 32 -18 72 -60 89 -36 15 -173 41 -258 49 l-58 5 0 -32z"/>
</g>
</svg>
