<?xml version="1.0" standalone="no"?>
<!DOCTYPE svg PUBLIC "-//W3C//DTD SVG 20010904//EN"
 "http://www.w3.org/TR/2001/REC-SVG-20010904/DTD/svg10.dtd">
<svg version="1.0" xmlns="http://www.w3.org/2000/svg"
 width="598.000000pt" height="417.000000pt" viewBox="0 0 598.000000 417.000000"
 preserveAspectRatio="xMidYMid meet">

<g transform="translate(0.000000,417.000000) scale(0.100000,-0.100000)"
fill="#000000" stroke="none">
<path d="M2849 3008 c-99 -66 -181 -129 -231 -179 -84 -83 -88 -83 -88 2 0 27
-4 49 -9 49 -24 0 -193 -159 -254 -239 -23 -30 -54 -77 -68 -105 -14 -27 -28
-45 -31 -40 -3 5 -9 47 -12 94 -4 46 -9 86 -11 89 -3 2 -33 -26 -69 -61 -109
-112 -184 -299 -174 -437 5 -67 48 -162 132 -291 87 -132 84 -117 43 -212 -20
-46 -45 -107 -57 -137 l-21 -53 49 -49 c49 -49 49 -49 116 -49 l66 0 0 -52 c0
-29 7 -82 15 -118 8 -36 24 -116 36 -178 24 -127 42 -161 164 -305 37 -43 87
-110 111 -148 27 -41 54 -71 67 -74 12 -3 192 -4 400 -3 l379 3 40 75 c256
484 310 609 334 773 7 52 11 54 75 32 24 -9 48 -14 55 -11 15 6 104 133 104
149 0 7 -20 35 -45 64 -68 78 -65 96 45 268 50 77 95 158 101 180 16 56 5 274
-20 410 -23 123 -46 196 -84 270 -55 105 -74 108 -114 17 l-26 -59 -70 81
c-38 45 -84 99 -103 121 -19 21 -34 44 -34 50 0 5 -5 3 -10 -5 -5 -8 -10 -66
-10 -128 l0 -114 -27 34 c-196 237 -357 397 -378 376 -3 -3 -11 -35 -18 -73
l-12 -68 -94 77 c-52 42 -97 76 -101 76 -3 0 -76 -46 -161 -102z m-699 -850
c29 -118 17 -109 116 -87 61 12 63 12 165 -25 182 -66 196 -70 231 -55 28 12
98 103 98 129 0 5 7 10 15 10 31 0 48 -152 26 -229 -17 -56 -38 -78 -88 -95
-28 -9 -86 -46 -135 -85 -84 -66 -171 -111 -276 -142 -37 -11 -45 -10 -53 2
-14 22 0 79 32 132 16 27 29 52 29 55 0 4 -27 34 -61 67 -83 83 -149 183 -149
228 0 45 21 137 31 137 5 0 13 -19 19 -42z m1800 1 c36 -108 -3 -211 -127
-338 -68 -69 -103 -131 -103 -181 0 -38 -19 -39 -153 -3 -219 58 -289 94 -339
172 -30 48 -64 148 -54 159 4 3 27 -4 51 -16 54 -26 101 -28 170 -6 28 8 119
35 204 59 156 45 171 46 201 11 19 -24 48 -19 64 12 8 15 24 60 36 100 12 39
25 72 29 72 4 0 14 -18 21 -41z m-967 -559 c29 -41 56 -74 62 -74 5 -1 29 28
52 64 74 116 75 116 67 30 -3 -41 -14 -106 -24 -145 -19 -72 -64 -180 -80
-190 -11 -7 -46 40 -104 140 -42 73 -46 88 -54 173 -4 51 -6 95 -3 98 7 7 27
-16 84 -96z"/>
</g>
</svg>
